<?xml version="1.0" encoding="utf-8"?>
<!-- Generator: Adobe Illustrator 23.1.1, SVG Export Plug-In . SVG Version: 6.00 Build 0)  -->
<svg version="1.1" id="Layer_1" xmlns="http://www.w3.org/2000/svg" xmlns:xlink="http://www.w3.org/1999/xlink" x="0px" y="0px"
	 viewBox="0 0 650 450" style="enable-background:new 0 0 650 450;" xml:space="preserve">
<style type="text/css">
	.st0{fill:#1a162d; opacity: 90%;} /* ? */
	.st1{fill:#CA225E;stroke:#FFFFFF;stroke-width:3;}
	.st2{stroke:#FFFFFF;stroke-width:4; opacity: 30%;}
	.st3{fill:#FFFFFF;}
</style>
<title>tidy-back</title>
<polygon class="st0" points="370,272.2 370,202.8 310,168 250,202.8 250,272.2 310,307 "/>
<polygon class="st1" points="495,487.2 495,417.8 435,383 375,417.8 375,487.2 435,522 "/>
<g>
	<path class="st2" d="M185,168l-60,34.8v69.5l60,34.8l60-34.8v-69.5L185,168z M240,269.4l-55,31.8l-55-31.8v-63.7l55-31.9l55,31.9
		V269.4z"/>
</g>
<g>
	<path class="st2" d="M372,60.5l-60,34.8v69.5l60,34.8l60-34.8V95.2L372,60.5z M427,161.9l-55,31.8l-55-31.8V98.1l55-31.9l55,31.9
		V161.9z"/>
</g>
<g>
	<path class="st2" d="M372,275.5l-60,34.8v69.5l60,34.8l60-34.8v-69.5L372,275.5z M427,376.9l-55,31.8l-55-31.8v-63.7l55-31.9
		l55,31.9V376.9z"/>
</g>
<polygon class="st1" points="310,92 370,57.2 370,0 250,0 250,57.2 "/>
<path class="st3" d="M317.7,220.5c0-4.8-3-8.7-8.7-8.7c-4,0-7.6,2-10.4,5.2l-4.2-3.9c3.8-4.3,8.9-7.5,15.5-7.5c9.1,0,15,5.5,15,14.4
	c0,11.8-14.5,16.6-13,29.2h-6.5C303.4,235.1,317.7,230,317.7,220.5z M303.5,262.5c0-3.4,2.3-5.8,5.3-5.8c3.1,0.2,5.5,2.9,5.3,6
	c-0.2,2.9-2.5,5.2-5.3,5.3c-2.9,0-5.3-2.4-5.3-5.3C303.5,262.6,303.5,262.6,303.5,262.5L303.5,262.5z"/>
</svg>
